<mxfile host="app.diagrams.net" modified="2023-03-24T18:14:22.448Z" agent="Mozilla/5.0 (Windows NT 10.0; Win64; x64) AppleWebKit/537.36 (KHTML, like Gecko) Chrome/111.0.0.0 Safari/537.36 Edg/111.0.1661.51" etag="BRf2Jt7ysL9Yj3BZFESe" version="21.1.1" type="device">
  <diagram name="Страница 1" id="y2bsDinmZhIjWvIjzHMX">
    <mxGraphModel dx="792" dy="1138" grid="1" gridSize="10" guides="1" tooltips="1" connect="1" arrows="1" fold="1" page="1" pageScale="1" pageWidth="827" pageHeight="1169" math="0" shadow="0">
      <root>
        <mxCell id="0" />
        <mxCell id="1" parent="0" />
        <mxCell id="w1iibDZBFdvE5QTAsibC-3" style="edgeStyle=orthogonalEdgeStyle;rounded=0;orthogonalLoop=1;jettySize=auto;html=1;" edge="1" parent="1" source="w1iibDZBFdvE5QTAsibC-1" target="w1iibDZBFdvE5QTAsibC-2">
          <mxGeometry relative="1" as="geometry" />
        </mxCell>
        <mxCell id="w1iibDZBFdvE5QTAsibC-1" value="Начало&lt;br&gt;setTime" style="ellipse;whiteSpace=wrap;html=1;" vertex="1" parent="1">
          <mxGeometry x="354" y="40" width="120" height="80" as="geometry" />
        </mxCell>
        <mxCell id="w1iibDZBFdvE5QTAsibC-5" style="edgeStyle=orthogonalEdgeStyle;rounded=0;orthogonalLoop=1;jettySize=auto;html=1;entryX=0.5;entryY=0;entryDx=0;entryDy=0;" edge="1" parent="1" source="w1iibDZBFdvE5QTAsibC-2" target="w1iibDZBFdvE5QTAsibC-4">
          <mxGeometry relative="1" as="geometry" />
        </mxCell>
        <mxCell id="w1iibDZBFdvE5QTAsibC-2" value="time.hours&lt;br&gt;time.minutes" style="shape=parallelogram;perimeter=parallelogramPerimeter;whiteSpace=wrap;html=1;fixedSize=1;" vertex="1" parent="1">
          <mxGeometry x="354" y="140" width="120" height="60" as="geometry" />
        </mxCell>
        <mxCell id="w1iibDZBFdvE5QTAsibC-4" value="Конец" style="ellipse;whiteSpace=wrap;html=1;" vertex="1" parent="1">
          <mxGeometry x="354" y="220" width="120" height="80" as="geometry" />
        </mxCell>
      </root>
    </mxGraphModel>
  </diagram>
</mxfile>
